<?xml version="1.0" encoding="UTF-8"?>
<svg version="1.1" xmlns="http://www.w3.org/2000/svg" width="375" height="371">
<path d="M0 0 C5.37108035 -0.04982449 10.74202305 -0.08591866 16.11328125 -0.10986328 C17.93654731 -0.11985643 19.75979762 -0.13345551 21.58300781 -0.15087891 C44.27570565 -0.36214718 44.27570565 -0.36214718 51 3 C51.625 6.0625 51.625 6.0625 52 9 C52.66 9 53.32 9 54 9 C55.00460531 11.12282669 56.00355602 13.24833021 57 15.375 C57.556875 16.55835937 58.11375 17.74171875 58.6875 18.9609375 C60 22 60 22 60 24 C60.66 24 61.32 24 62 24 C62.36351562 24.79921875 62.72703125 25.5984375 63.1015625 26.421875 C67.25613868 35.49802604 71.453065 44.55842248 76.375 53.25 C79.16425775 58.17648123 81.65130063 63.24903783 84.14599609 68.32910156 C85.95439606 71.99243134 87.88008014 75.50399182 90 79 C90.66433249 80.59439796 91.32816709 82.18900719 91.98828125 83.78515625 C94.36842298 88.99573678 97.26679118 93.96841104 100 99 C104 106.37209302 104 106.37209302 104 111 C104.66 111 105.32 111 106 111 C106.47050781 112.10859375 106.94101562 113.2171875 107.42578125 114.359375 C108.05440564 115.82303775 108.68332756 117.28657275 109.3125 118.75 C109.62123047 119.47960937 109.92996094 120.20921875 110.24804688 120.9609375 C111.85365704 124.67919261 113.46145795 127.81379473 116 131 C116.33 131.99 116.66 132.98 117 134 C117.99 134 118.98 134 120 134 C124.19587924 116.4119839 127.55994763 100.21475927 124.36669922 82.11669922 C123.96392491 79.79176361 123.61033779 77.46137609 123.25390625 75.12890625 C119.96850658 54.85972544 112.81588126 34.5300253 100.3203125 18.05859375 C99 16 99 16 99 13 C98.34 13 97.68 13 97 13 C96.773125 12.443125 96.54625 11.88625 96.3125 11.3125 C94.64103234 8.36753316 92.44723648 6.31843456 90 4 C94.47059476 -0.47059476 101.03192667 -0.14407327 107 -0.1875 C109.14989073 -0.15243606 111.29882128 -0.10147767 113.44824219 -0.04443359 C116.3549549 0.00618081 119.25706005 -0.02446748 122.1640625 -0.05078125 C124.31772405 -0.03598783 126.47137204 -0.01906586 128.625 0 C129.65625 -0.01957764 130.6875 -0.03915527 131.75 -0.05932617 C138.96131096 0.08440321 138.96131096 0.08440321 141.93652344 2.70703125 C143.46883696 4.74005768 144.73612147 6.79269169 146 9 C146.51643066 9.67933594 147.03286133 10.35867187 147.56494141 11.05859375 C149.19166583 13.25929341 150.15705579 15.55990169 151.18359375 18.0859375 C152.03137036 20.07354773 152.99739282 21.96127831 154 23.875 C155.77726064 27.36870248 157.05122278 30.88258914 158.19140625 34.62890625 C159.02049815 37.18126885 159.02049815 37.18126885 160.4609375 40.25 C162.18204514 44.21358626 163.16297483 48.22086078 164.0625 52.4375 C164.23168945 53.22970947 164.40087891 54.02191895 164.57519531 54.83813477 C169.06059517 76.4592313 169.88410714 99.20099418 166 121 C165.86045898 121.80550293 165.72091797 122.61100586 165.57714844 123.44091797 C162.51208655 140.88443897 162.51208655 140.88443897 158.9296875 148.78515625 C157.86627848 151.31857186 157.22077406 153.83362022 156.5625 156.5 C155.32496902 161.30733188 153.44199332 165.4114589 151.12890625 169.7890625 C149.77114928 172.44819898 148.88588208 175.15252188 148 178 C147.04142311 180.35330626 146.02354074 182.67377104 145 185 C144.34 185 143.68 185 143 185 C142.855625 185.969375 142.71125 186.93875 142.5625 187.9375 C142 191 142 191 141 192 C139.4635783 192.10040734 137.9225103 192.13081696 136.3828125 192.1328125 C134.90155884 192.13571289 134.90155884 192.13571289 133.39038086 192.13867188 C131.77401733 192.1319043 131.77401733 192.1319043 130.125 192.125 C129.02486572 192.12306641 127.92473145 192.12113281 126.79125977 192.11914062 C114.18424379 192.05522223 101.59355629 191.55531572 89 191 C88.67 190.01 88.34 189.02 88 188 C87.01 187.67 86.02 187.34 85 187 C83.53515625 184.55859375 83.53515625 184.55859375 82.0625 181.4375 C81.54171875 180.34953125 81.0209375 179.2615625 80.484375 178.140625 C79.99453125 177.10421875 79.5046875 176.0678125 79 175 C78.27529211 173.56024698 77.54687112 172.12234819 76.8125 170.6875 C75.39042207 167.84914855 74.13604536 164.96651015 72.90625 162.0390625 C69.66866654 154.75449972 65.94308682 147.69634473 61.8828125 140.83984375 C61 139 61 139 61 136 C60.34 136 59.68 136 59 136 C58.27683594 134.64455078 58.27683594 134.64455078 57.5390625 133.26171875 C56.90112135 132.07026983 56.2630961 130.87886594 55.625 129.6875 C55.30789062 129.09259766 54.99078125 128.49769531 54.6640625 127.88476562 C53.20613651 125.16634112 51.71288297 122.56932446 50 120 C49.96241577 121.89383423 49.96241577 121.89383423 49.92407227 123.82592773 C48.99956987 170.03030019 48.99956987 170.03030019 48 191 C42.96867216 191.02502765 37.93738187 191.04301234 32.90600586 191.05493164 C31.20027026 191.05990931 29.4945388 191.06669386 27.78881836 191.07543945 C25.3136288 191.08779723 22.83849641 191.09329397 20.36328125 191.09765625 C19.62104813 191.10281754 18.878815 191.10797882 18.11408997 191.11329651 C11.38059782 191.11398399 4.70618209 190.57423426 -2 190 C-2.06303364 176.52087833 -2.10257435 163.04175025 -2.125 149.5625 C-2.12671204 148.54094944 -2.12842407 147.51939888 -2.13018799 146.46689224 C-2.18123318 111.86297331 -1.76625119 77.28270565 -1 42.6875 C-0.96412655 41.06705214 -0.96412655 41.06705214 -0.92752838 39.41386795 C-0.63515539 26.27550074 -0.32633562 13.13756643 0 0 Z " fill="#FCF002" transform="translate(200,87)"/>
<path d="M0 0 C1.25683594 0.01353516 1.25683594 0.01353516 2.5390625 0.02734375 C3.14492187 0.03894531 3.75078125 0.05054687 4.375 0.0625 C7.58064694 6.47379388 6.52508608 15.96951501 6.75 23.0625 C6.99532561 29.95267749 7.41173766 36.7917311 8.10546875 43.65234375 C10.64171474 68.81121333 10.6874359 93.79044125 10.375 119.0625 C6.54120916 120.34043028 2.76843802 120.50387149 -1.234375 120.78125 C-2.10088684 120.84373428 -2.96739868 120.90621857 -3.86016846 120.97059631 C-6.69812062 121.17286326 -9.53649444 121.36816359 -12.375 121.5625 C-13.34195801 121.63008514 -14.30891602 121.69767029 -15.30517578 121.76730347 C-29.01075029 122.72063976 -42.68646004 123.37947765 -56.41992188 123.71875 C-64.03421898 123.92376608 -71.52610563 124.41536585 -79.08666992 125.33007812 C-85.48487451 126.09974344 -91.87366051 126.46117595 -98.31152344 126.72070312 C-102.49350708 126.89943596 -106.50212418 127.26938716 -110.625 128.0625 C-110.55869212 142.4513098 -102.61381139 156.21393453 -93.625 167.0625 C-93.19445312 167.79984375 -92.76390625 168.5371875 -92.3203125 169.296875 C-90.32841872 172.54632384 -88.04089224 175.51017776 -85.6875 178.5 C-76.625 190.03532609 -76.625 190.03532609 -76.625 194.0625 C-84.41543431 195.93756473 -92.0063554 196.50355916 -100 196.75 C-101.71316406 196.82057617 -101.71316406 196.82057617 -103.4609375 196.89257812 C-122.63568511 197.55715745 -122.63568511 197.55715745 -127.625 195.0625 C-127.625 194.4025 -127.625 193.7425 -127.625 193.0625 C-128.615 192.7325 -129.605 192.4025 -130.625 192.0625 C-132.16969078 189.70954078 -133.54014705 187.4059933 -134.875 184.9375 C-135.27050049 184.2168335 -135.66600098 183.49616699 -136.07348633 182.75366211 C-148.8023075 159.28369585 -158.75939973 133.1020973 -158.79296875 106.10546875 C-158.79629715 105.16246414 -158.79962555 104.21945953 -158.80305481 103.24787903 C-158.80809776 101.26022832 -158.81046395 99.27256921 -158.81030273 97.28491211 C-158.81248561 94.26987514 -158.83065967 91.25520659 -158.84960938 88.24023438 C-158.8525447 86.2994804 -158.85452857 84.35872471 -158.85546875 82.41796875 C-158.86265427 81.5290947 -158.86983978 80.64022064 -158.87724304 79.72441101 C-158.85533852 73.61885633 -158.01239798 68.00110275 -156.625 62.0625 C-156.38402588 60.97767334 -156.14305176 59.89284668 -155.89477539 58.77514648 C-155.16324117 55.68240156 -154.42797961 52.5906164 -153.6875 49.5 C-153.43548828 48.42814453 -153.18347656 47.35628906 -152.92382812 46.25195312 C-151.44527384 40.0692517 -149.7659539 34.04830536 -147.625 28.0625 C-147.15126953 26.70125 -147.15126953 26.70125 -146.66796875 25.3125 C-144.32807153 19.15824977 -141.34855919 12.78605919 -136.625 8.0625 C-129.79338605 6.97761769 -122.83783912 6.89076306 -115.9375 6.6875 C-108.14997247 6.41736713 -100.45479069 5.8811039 -92.71044922 5.02246094 C-73.46103924 2.88858926 -54.19503902 2.29559735 -34.84375 1.70922852 C-33.05642204 1.6540229 -33.05642204 1.6540229 -31.23298645 1.59770203 C-28.99016432 1.52952799 -26.74723479 1.46476362 -24.50419617 1.40412903 C-18.86729959 1.2363707 -13.29989951 0.90509408 -7.69480896 0.27568054 C-5.12238613 0.01073315 -2.58465346 -0.03692362 0 0 Z M-52.7487793 45.33789062 C-54.00986008 45.39795288 -55.27094086 45.45801514 -56.57023621 45.51989746 C-57.94656445 45.58616642 -59.32289195 45.65245097 -60.69921875 45.71875 C-62.10740365 45.78607291 -63.51559155 45.85333281 -64.92378235 45.92053223 C-68.62768539 46.09745366 -72.33154687 46.27523119 -76.03540039 46.45318604 C-79.81589327 46.63467158 -83.59642477 46.81534882 -87.37695312 46.99609375 C-94.79300682 47.35077067 -102.2090168 47.70635187 -109.625 48.0625 C-111.20683801 52.75052482 -112.36151582 57.2700686 -113.25 62.125 C-113.3840625 62.81916016 -113.518125 63.51332031 -113.65625 64.22851562 C-114.33670526 67.88422681 -114.78450513 71.3431303 -114.625 75.0625 C-111.32744595 76.06845898 -108.45205833 76.13109371 -105.015625 76.01171875 C-103.88334473 75.97377197 -102.75106445 75.9358252 -101.58447266 75.89672852 C-100.36034668 75.84830811 -99.1362207 75.7998877 -97.875 75.75 C-96.60833496 75.70222412 -95.34166992 75.65444824 -94.03662109 75.60522461 C-84.80522379 75.24337228 -75.57805486 74.78656087 -66.35534668 74.24746704 C-64.96233626 74.16643627 -63.56918636 74.08776581 -62.17590332 74.01156616 C-60.21314657 73.90270475 -58.25107878 73.78163449 -56.2890625 73.66015625 C-54.60997803 73.55973022 -54.60997803 73.55973022 -52.89697266 73.45727539 C-46.80053035 72.87625602 -46.80053035 72.87625602 -41.625 70.0625 C-41.59609275 68.37630654 -41.63829991 66.68878244 -41.7109375 65.00390625 C-41.75476563 63.97845703 -41.79859375 62.95300781 -41.84375 61.89648438 C-41.8953125 60.81689453 -41.946875 59.73730469 -42 58.625 C-42.04382813 57.54927734 -42.08765625 56.47355469 -42.1328125 55.36523438 C-42.14875144 50.04384162 -42.14875144 50.04384162 -43.625 45.0625 C-46.67728735 45.0625 -49.69991449 45.19183722 -52.7487793 45.33789062 Z " fill="#01ACED" transform="translate(165.625,82.9375)"/>
<path d="M0 0 C6.13402157 -0.05001084 12.26792046 -0.08600416 18.40209961 -0.10986328 C20.48219881 -0.1198259 22.56228436 -0.13340088 24.64233398 -0.15087891 C43.23444401 -0.30301651 60.69301955 -0.10439375 77.5 8.875 C82.88221902 11.6726178 88.33304721 13.52161793 94.125 15.25 C94.94806641 15.4960498 95.77113281 15.74209961 96.61914062 15.99560547 C99.07055777 16.7031958 101.53000892 17.36050407 104 18 C105.07761597 18.30019043 105.07761597 18.30019043 106.17700195 18.60644531 C114.13582205 20.54556279 122.24613369 20.30148994 130.38549805 20.26074219 C132.92846605 20.25003803 135.47072553 20.26067491 138.01367188 20.2734375 C149.76360219 20.28507693 160.3147586 19.14727749 171.5 15.375 C178.625 13 178.625 13 182 13 C182 12.34 182 11.68 182 11 C201.82515648 2.42020539 221.03251992 0.80809474 242.40380859 0.86962891 C244.65859435 0.87508123 246.91318825 0.86959172 249.16796875 0.86328125 C250.62500043 0.86394075 252.082032 0.86521924 253.5390625 0.8671875 C254.83021973 0.86831543 256.12137695 0.86944336 257.45166016 0.87060547 C260.7288697 0.9901129 263.78483873 1.37605176 267 2 C267 2.66 267 3.32 267 4 C266.34 4 265.68 4 265 4 C264.6596875 5.051875 264.6596875 5.051875 264.3125 6.125 C262.66158712 9.74128535 260.7091165 12.08769976 258 15 C257.34 15 256.68 15 256 15 C256 15.66 256 16.32 256 17 C254.28515625 18.4375 254.28515625 18.4375 252.0625 20 C249.01367363 22.04816804 249.01367363 22.04816804 247 25 C245.35442398 25.94032915 243.70618325 26.87638957 242.04296875 27.78515625 C239.10750414 29.53071933 236.47367855 31.61579394 233.796875 33.73046875 C232 35 232 35 229 36 C228.53722656 36.46664062 228.07445312 36.93328125 227.59765625 37.4140625 C225.69744366 39.3003371 223.85021171 40.22092602 221.4375 41.375 C220.11685547 42.01501953 220.11685547 42.01501953 218.76953125 42.66796875 C217.85558594 43.10753906 216.94164062 43.54710937 216 44 C214.20680113 44.89276235 212.41507266 45.78848573 210.625 46.6875 C209.08333333 47.45833333 207.54166667 48.22916667 206 49 C205.32710937 49.37769531 204.65421875 49.75539063 203.9609375 50.14453125 C202 51 202 51 198 51 C198 51.66 198 52.32 198 53 C197.28457031 53.17015625 196.56914062 53.3403125 195.83203125 53.515625 C190.48769497 54.81541183 185.27003015 56.22780388 180.0625 58 C149.5659488 67.26297116 110.0110269 66.59434492 80 56 C78.10770011 55.39628508 76.21539106 54.79259817 74.32275391 54.18994141 C68.07073894 52.1759431 62.09515524 49.85161978 56.171875 47.015625 C53.90167067 45.90310895 53.90167067 45.90310895 51 45 C51 44.34 51 43.68 51 43 C50.44828125 42.88785156 49.8965625 42.77570313 49.328125 42.66015625 C46.59934789 41.88639227 44.27227057 40.73182306 41.75 39.4375 C40.85796875 38.98246094 39.9659375 38.52742188 39.046875 38.05859375 C38.03367187 37.53458984 38.03367187 37.53458984 37 37 C37 36.34 37 35.68 37 35 C35.88625 34.814375 35.88625 34.814375 34.75 34.625 C32.19858515 34.04513299 30.2732427 33.26291261 28 32 C28 31.34 28 30.68 28 30 C27.34 30 26.68 30 26 30 C26 29.34 26 28.68 26 28 C24.35 27.67 22.7 27.34 21 27 C21 26.34 21 25.68 21 25 C20.44183594 24.75765625 19.88367188 24.5153125 19.30859375 24.265625 C12.03175433 20.27629171 2.9356793 12.00639809 0 4 C0 2.68 0 1.36 0 0 Z " fill="#FBEF02" transform="translate(54,299)"/>
<path d="M0 0 C0.91313965 0.33487427 0.91313965 0.33487427 1.84472656 0.67651367 C19.51646993 7.20189254 35.61844219 15.71105461 50.875 26.8125 C53.82864004 29.10119683 53.82864004 29.10119683 57 30 C58.68873879 31.64429829 60.35305515 33.31384218 62 35 C63.3921875 36.0828125 63.3921875 36.0828125 64.8125 37.1875 C65.534375 37.785625 66.25625 38.38375 67 39 C67 39.66 67 40.32 67 41 C67.61875 41.226875 68.2375 41.45375 68.875 41.6875 C71.61410209 43.37929835 72.05024472 44.99244161 73 48 C73.66 48 74.32 48 75 48 C75.99 49.98 76.98 51.96 78 54 C76.37477243 55.62522757 74.56409667 55.14376176 72.31933594 55.16113281 C71.32029236 55.17074036 70.32124878 55.1803479 69.29193115 55.19024658 C67.65469086 55.1966214 67.65469086 55.1966214 65.984375 55.203125 C64.30145355 55.21167511 64.30145355 55.21167511 62.58453369 55.22039795 C60.19699044 55.22987282 57.80943396 55.23639174 55.421875 55.24023438 C51.80704937 55.24984827 48.19281475 55.28080957 44.578125 55.3125 C42.2552117 55.31903912 39.93229433 55.32428601 37.609375 55.328125 C36.54217224 55.3404718 35.47496948 55.3528186 34.37542725 55.36553955 C23.1184818 55.33295763 12.8645331 52.89175601 2.75 48 C-5.04724553 44.30948877 -12.77589563 41.42404624 -21.1875 39.4375 C-24.09081833 38.74956513 -26.81139548 38.07658487 -29.578125 36.953125 C-34.84855231 35.48510643 -40.11364917 35.47434705 -45.5625 35.3125 C-46.76181152 35.27560059 -47.96112305 35.23870117 -49.19677734 35.20068359 C-66.46296874 34.75325405 -81.61908416 35.27290456 -98 41 C-99.60400831 41.50050779 -101.20814285 42.00061155 -102.8125 42.5 C-107.19800522 43.99852205 -111.45293858 45.8048388 -115.71484375 47.62109375 C-116.79894531 48.07613281 -117.88304688 48.53117187 -119 49 C-119.70116943 49.33241699 -120.40233887 49.66483398 -121.12475586 50.00732422 C-128.24480812 53.19739751 -134.94883895 53.85062571 -142.6875 54.25 C-143.93047852 54.32444336 -145.17345703 54.39888672 -146.45410156 54.47558594 C-149.96874822 54.67529223 -153.48305127 54.84674213 -157 55 C-158.23580811 55.05414063 -158.23580811 55.05414063 -159.49658203 55.109375 C-169.14045324 55.46796654 -178.48360346 54.40057347 -188 53 C-187.51651523 48.36521494 -185.75183728 46.12981764 -182.625 42.75 C-181.83351563 41.87859375 -181.04203125 41.0071875 -180.2265625 40.109375 C-178 38 -178 38 -175 37 C-174.67 36.01 -174.34 35.02 -174 34 C-172.16284228 32.44855888 -170.25522443 30.97951794 -168.3125 29.5625 C-167.27738281 28.80066406 -166.24226563 28.03882813 -165.17578125 27.25390625 C-160.55649458 23.97551952 -155.86587335 20.89635318 -151 18 C-150.35675781 17.57203125 -149.71351563 17.1440625 -149.05078125 16.703125 C-148.35339844 16.24421875 -147.65601563 15.7853125 -146.9375 15.3125 C-146.28652344 14.87550781 -145.63554687 14.43851563 -144.96484375 13.98828125 C-143 13 -143 13 -139 13 C-138.505 11.515 -138.505 11.515 -138 10 C-135.56075996 8.84364133 -133.21262605 7.86109615 -130.6875 6.9375 C-126.70739688 5.4340738 -122.7923258 3.93945429 -119 2 C-116.67127325 1.28712446 -114.35156673 0.6279506 -112 0 C-110.1665421 -0.49954302 -108.33321722 -0.99957445 -106.5 -1.5 C-105.6234375 -1.7371875 -104.746875 -1.974375 -103.84375 -2.21875 C-101.78933893 -2.78314864 -99.74326796 -3.37821083 -97.703125 -3.9921875 C-67.5151537 -12.20790121 -29.23994988 -10.93898552 0 0 Z " fill="#FCF002" transform="translate(244,11)"/>
<path d="M0 0 C0.33 0 0.66 0 1 0 C1.75741992 9.81817037 2.14866722 19.54702213 2.1328125 29.3984375 C2.13383225 30.74657213 2.13517405 32.09470655 2.1368103 33.44284058 C2.13947874 37.0170304 2.13509184 40.59117587 2.12857056 44.1653595 C2.12497736 46.38900889 2.12337619 48.61265177 2.12231445 50.83630371 C2.10777641 75.38002213 1.80487125 99.91113581 1.1524353 124.44699097 C1.12241928 125.59713181 1.12241928 125.59713181 1.09179688 126.77050781 C1.07403198 127.42335754 1.05626709 128.07620728 1.03796387 128.74884033 C0.98596655 131.83214777 1 134.91625415 1 138 C16.18 138.33 31.36 138.66 47 139 C46.979375 134.71 46.95875 130.42 46.9375 126 C46.89996565 109.65150312 47.3907736 93.33569308 48 77 C48.66 76.67 49.32 76.34 50 76 C50.10509017 97.68899374 50.19793025 119.33530397 49 141 C43.96867216 141.02502765 38.93738187 141.04301234 33.90600586 141.05493164 C32.20027026 141.05990931 30.4945388 141.06669386 28.78881836 141.07543945 C26.3136288 141.08779723 23.83849641 141.09329397 21.36328125 141.09765625 C20.62104813 141.10281754 19.878815 141.10797882 19.11408997 141.11329651 C12.38059782 141.11398399 5.70618209 140.57423426 -1 140 C-1.03039863 125.47917598 -1.05090306 110.9583514 -1.0625 96.4375 C-1.06335602 95.37314854 -1.06421204 94.30879707 -1.06509399 93.21219254 C-1.08720363 62.13013151 -1.00472753 31.06906127 0 0 Z " fill="#B3AA22" transform="translate(199,137)"/>
<path d="M0 0 C4.73225528 -0.02481819 9.46447221 -0.04291583 14.19677734 -0.05493164 C15.80485698 -0.05994375 17.4129321 -0.06675519 19.02099609 -0.07543945 C21.33952961 -0.08764226 23.65800259 -0.09325964 25.9765625 -0.09765625 C26.68930328 -0.10281754 27.40204407 -0.10797882 28.13638306 -0.11329651 C32.19856429 -0.11374755 36.01488106 0.21224393 40 1 C40 1.66 40 2.32 40 3 C39.34 3 38.68 3 38 3 C37.773125 3.70125 37.54625 4.4025 37.3125 5.125 C35.66158712 8.74128535 33.7091165 11.08769976 31 14 C30.34 14 29.68 14 29 14 C29 14.66 29 15.32 29 16 C27.25 17.5078125 27.25 17.5078125 25 19.125 C24.2575 19.66382813 23.515 20.20265625 22.75 20.7578125 C22.1725 21.16773438 21.595 21.57765625 21 22 C20.34 20.68 19.68 19.36 19 18 C20.32 17.67 21.64 17.34 23 17 C23 16.01 23 15.02 23 14 C23.99 14 24.98 14 26 14 C26.33 13.34 26.66 12.68 27 12 C27.99 12.33 28.98 12.66 30 13 C30 12.01 30 11.02 30 10 C29.34 9.67 28.68 9.34 28 9 C28.66 7.68 29.32 6.36 30 5 C30.99 5 31.98 5 33 5 C33.33 4.01 33.66 3.02 34 2 C22.78 2 11.56 2 0 2 C0 1.34 0 0.68 0 0 Z " fill="#9E951D" transform="translate(281,300)"/>
<path d="M0 0 C0.33 0 0.66 0 1 0 C1.03738281 1.25425781 1.07476562 2.50851563 1.11328125 3.80078125 C1.42621734 12.80553849 1.84050724 21.76958571 2.734375 30.73828125 C5.13762632 54.8617419 5.32265261 78.76796205 5 103 C4.67 103 4.34 103 4 103 C3.96241577 101.45675049 3.96241577 101.45675049 3.92407227 99.88232422 C3.82953948 96.04675933 3.7294328 92.21135629 3.62768555 88.37597656 C3.58450951 86.71943969 3.54282303 85.06286328 3.50268555 83.40625 C3.4445607 81.0181082 3.38099052 78.6301623 3.31640625 76.2421875 C3.29133751 75.14026566 3.29133751 75.14026566 3.26576233 74.01608276 C3.1490804 69.91940118 2.73130132 66.02841363 2 62 C-0.26090501 41.36390073 -0.24573187 20.72464788 0 0 Z " fill="#107EA6" transform="translate(171,96)"/>
<path d="M0 0 C0.33 0 0.66 0 1 0 C1.02533211 7.90201128 1.04285934 15.8040121 1.05493164 23.70605469 C1.05939946 26.39486852 1.06636119 29.08365882 1.07543945 31.77246094 C1.08755371 35.6347725 1.09323945 39.49704792 1.09765625 43.359375 C1.10281754 44.5636615 1.10797882 45.767948 1.11329651 47.00872803 C1.11337204 48.12958801 1.11344757 49.250448 1.11352539 50.40527344 C1.115746 51.39122498 1.11796661 52.37717651 1.12025452 53.39300537 C1.01134079 55.7541434 0.67399991 57.74333236 0 60 C0.66 60 1.32 60 2 60 C3.70450615 68.64045258 5.38641858 77.19828026 6 86 C4.4457769 83.1266429 3.49731662 80.43721416 2.74609375 77.26171875 C2.53146484 76.35873047 2.31683594 75.45574219 2.09570312 74.52539062 C1.87849609 73.58888672 1.66128906 72.65238281 1.4375 71.6875 C1.21642578 70.76259766 0.99535156 69.83769531 0.76757812 68.88476562 C-1.1964418 60.53619756 -2.15731346 52.61208905 -2.16796875 44.04296875 C-2.17129715 43.09996414 -2.17462555 42.15695953 -2.17805481 41.18537903 C-2.18309776 39.19772832 -2.18546395 37.21006921 -2.18530273 35.22241211 C-2.18748561 32.20737514 -2.20565967 29.19270659 -2.22460938 26.17773438 C-2.2275447 24.2369804 -2.22952857 22.29622471 -2.23046875 20.35546875 C-2.23765427 19.4665947 -2.24483978 18.57772064 -2.25224304 17.66191101 C-2.23037957 11.56780038 -1.39619782 5.92896614 0 0 Z " fill="#0F688C" transform="translate(9,145)"/>
<path d="M0 0 C-2.39824947 2.39824947 -3.27335218 2.31436204 -6.5625 2.5625 C-9.58047788 2.58449303 -9.58047788 2.58449303 -12 4 C-14.0572917 4.31923492 -16.11613521 4.51161352 -18.1875 4.71875 C-20.0167533 4.81998043 -20.0167533 4.81998043 -21 6 C-22.175625 6.103125 -23.35125 6.20625 -24.5625 6.3125 C-28.63551621 6.75696152 -31.53792615 8.13432336 -35.1015625 10.078125 C-37.66802149 11.32438903 -40.17835561 11.71783556 -43 12 C-43 12.66 -43 13.32 -43 14 C-43.99 14 -44.98 14 -46 14 C-46 14.66 -46 15.32 -46 16 C-51.80766296 17.5056904 -56.9981863 18.21824777 -63 18 C-59.51095699 15.67397132 -55.96609994 14.58882418 -52 13.375 C-51.27554688 13.14554687 -50.55109375 12.91609375 -49.8046875 12.6796875 C-46.77088102 11.73931944 -44.19456412 11 -41 11 C-41 10.34 -41 9.68 -41 9 C-27.53806324 3.17403577 -14.88650821 -0.73614601 0 0 Z " fill="#AFA71B" transform="translate(277,301)"/>
<path d="M0 0 C1.32 0.33 2.64 0.66 4 1 C4 2.65 4 4.3 4 6 C4.66 6.33 5.32 6.66 6 7 C5.67 7.66 5.34 8.32 5 9 C5.66 9 6.32 9 7 9 C7.33 10.98 7.66 12.96 8 15 C10.31 15.33 12.62 15.66 15 16 C15 16.66 15 17.32 15 18 C15.66 18 16.32 18 17 18 C17.33 17.34 17.66 16.68 18 16 C17.67 17.65 17.34 19.3 17 21 C18.63582031 20.98259766 18.63582031 20.98259766 20.3046875 20.96484375 C31.2416983 20.88659999 42.08775276 21.27767631 53 22 C53 22.33 53 22.66 53 23 C48.75049279 23.19996081 44.50040099 23.3826241 40.25 23.5625 C39.06277344 23.61857422 37.87554687 23.67464844 36.65234375 23.73242188 C17.06995739 24.53497869 17.06995739 24.53497869 12 22 C12 21.34 12 20.68 12 20 C11.01 19.67 10.02 19.34 9 19 C7.83325195 17.46533203 7.83325195 17.46533203 6.73828125 15.5078125 C6.34189453 14.80269531 5.94550781 14.09757812 5.53710938 13.37109375 C5.13298828 12.62988281 4.72886719 11.88867188 4.3125 11.125 C3.89677734 10.39152344 3.48105469 9.65804688 3.05273438 8.90234375 C0 3.39839901 0 3.39839901 0 0 Z " fill="#079DD1" transform="translate(26,256)"/>
<path d="M0 0 C0 0.33 0 0.66 0 1 C-24.70676892 2.96913978 -49.20520878 4.5456477 -74 4 C-74 3.34 -74 2.68 -74 2 C-73.14277344 2.01160156 -72.28554687 2.02320313 -71.40234375 2.03515625 C-70.25894531 2.04417969 -69.11554688 2.05320313 -67.9375 2.0625 C-66.24947266 2.07990234 -66.24947266 2.07990234 -64.52734375 2.09765625 C-61.04121947 2.07365666 -61.04121947 2.07365666 -57.79467773 1.51147461 C-53.77197641 0.9692653 -49.80881109 0.7948039 -45.7578125 0.71875 C-44.99000458 0.70034058 -44.22219666 0.68193115 -43.43112183 0.66296387 C-40.9958191 0.60471472 -38.56044966 0.55171524 -36.125 0.5 C-32.91914696 0.43162721 -29.71347663 0.35791986 -26.5078125 0.28125 C-25.42924484 0.26088684 -25.42924484 0.26088684 -24.32888794 0.2401123 C-19.82705076 0.13220914 -15.41582715 -0.23834691 -10.94773865 -0.80296326 C-7.20488791 -1.18159677 -3.70516857 -0.5293098 0 0 Z " fill="#1283AD" transform="translate(173,202)"/>
<path d="M0 0 C0 0.33 0 0.66 0 1 C-1.58323688 1.027193 -3.16661062 1.04648306 -4.75 1.0625 C-6.07257813 1.07990234 -6.07257813 1.07990234 -7.421875 1.09765625 C-10 1 -10 1 -11.91098022 0.50198364 C-14.02413364 -0.00579922 -15.83363003 -0.12684924 -18.00244141 -0.12939453 C-18.77649323 -0.13254669 -19.55054504 -0.13569885 -20.34805298 -0.13894653 C-21.17421112 -0.1369223 -22.00036926 -0.13489807 -22.8515625 -0.1328125 C-23.70680511 -0.13376923 -24.56204773 -0.13472595 -25.44320679 -0.13571167 C-27.24696934 -0.13639101 -29.05073436 -0.13455391 -30.85449219 -0.13037109 C-33.62180022 -0.1250062 -36.38894692 -0.13033115 -39.15625 -0.13671875 C-40.90885453 -0.13605818 -42.66145895 -0.13477746 -44.4140625 -0.1328125 C-45.65937241 -0.13584885 -45.65937241 -0.13584885 -46.92984009 -0.13894653 C-51.09797172 -0.23271922 -51.09797172 -0.23271922 -55 1 C-56.60352383 1.04540952 -58.20879467 1.03846969 -59.8125 1 C-62.50979383 0.96921776 -64.85225514 0.97045103 -67.5 1.5 C-71.62654971 2.32530994 -75.80531762 2.07330513 -80 2 C-80 1.67 -80 1.34 -80 1 C-54.06768427 -3.95140318 -25.92173434 -6.28405681 0 0 Z " fill="#B0A71C" transform="translate(224,6)"/>
<path d="M0 0 C0.33 0.66 0.66 1.32 1 2 C0.67 2.66 0.34 3.32 0 4 C0.6403569 3.99777939 1.28071381 3.99555878 1.94047546 3.99327087 C8.60769086 3.97114054 15.27489581 3.95606098 21.94213867 3.94506836 C24.43009871 3.94004087 26.9180558 3.93321798 29.40600586 3.92456055 C32.98291757 3.91242574 36.5597902 3.90675581 40.13671875 3.90234375 C41.80416389 3.89460182 41.80416389 3.89460182 43.5052948 3.88670349 C45.06634697 3.88659019 45.06634697 3.88659019 46.65893555 3.88647461 C47.5716069 3.884254 48.48427826 3.88203339 49.42460632 3.87974548 C52.04132687 4.0019297 54.44899974 4.41953212 57 5 C57 5.33 57 5.66 57 6 C36.99498819 7.57476907 17.90715137 8.92983043 -2 6 C-1.125 1.125 -1.125 1.125 0 0 Z " fill="#C3BC2D" transform="translate(58,58)"/>
<path d="M0 0 C1.45599609 0.24556641 1.45599609 0.24556641 2.94140625 0.49609375 C7.28276888 1.11628841 11.55997771 1.11126417 15.9375 1.0625 C16.71673828 1.05798828 17.49597656 1.05347656 18.29882812 1.04882812 C20.19925268 1.03716908 22.09963706 1.01923877 24 1 C24 1.33 24 1.66 24 2 C27.93748458 2.02898816 31.87494179 2.04679464 35.8125 2.0625 C36.93205078 2.07087891 38.05160156 2.07925781 39.20507812 2.08789062 C40.27822266 2.09111328 41.35136719 2.09433594 42.45703125 2.09765625 C43.44678955 2.10289307 44.43654785 2.10812988 45.45629883 2.11352539 C48.12392734 2.11069959 48.12392734 2.11069959 51 1 C52.40664926 0.85507877 53.8181133 0.75371069 55.23046875 0.68359375 C56.03291016 0.64169922 56.83535156 0.59980469 57.66210938 0.55664062 C58.91217773 0.49766602 58.91217773 0.49766602 60.1875 0.4375 C61.03248047 0.39431641 61.87746094 0.35113281 62.74804688 0.30664062 C64.83184433 0.20068482 66.91590103 0.0998498 69 0 C63.25468703 5.74531297 48.11651403 4.24297334 40.29873657 4.27575684 C38.66651731 4.27420617 37.03429779 4.26918151 35.40209961 4.26074219 C32.93643711 4.24999537 30.47150039 4.26072171 28.00585938 4.2734375 C18.47959299 4.28057836 9.40063924 3.68152414 0 2 C0 1.34 0 0.68 0 0 Z " fill="#B7AF17" transform="translate(154,358)"/>
<path d="M0 0 C0.33 0 0.66 0 1 0 C1.02515187 5.36702146 1.0430681 10.73400691 1.05493164 16.10107422 C1.0598893 17.91813761 1.06665744 19.73519717 1.07543945 21.55224609 C1.13277475 33.74105586 0.82436685 45.8380331 0 58 C-0.33 58 -0.66 58 -1 58 C-1.85509471 43.80659129 -2.07790777 29.70645393 -1.625 15.5 C-1.60357941 14.78320068 -1.58215881 14.06640137 -1.56008911 13.32788086 C-1.18493466 1.18493466 -1.18493466 1.18493466 0 0 Z " fill="#A59C1C" transform="translate(248,213)"/>
<path d="M0 0 C0.99 0.495 0.99 0.495 2 1 C2.65889107 3.59929506 3.18320754 6.11196481 3.625 8.75 C3.75543701 9.52061768 3.88587402 10.29123535 4.02026367 11.08520508 C5.86128639 22.67536182 4.93744061 33.46184923 3 45 C2.01 45 1.02 45 0 45 C0.23396484 43.58074219 0.23396484 43.58074219 0.47265625 42.1328125 C2.0921155 31.4637549 3.23237557 19.58589872 0.47973633 8.99902344 C-0.23906373 6.00384029 -0.05893928 3.06484236 0 0 Z " fill="#DFD41C" transform="translate(324,160)"/>
<path d="M0 0 C6.20727249 -0.02489804 12.41451528 -0.04295304 18.62182617 -0.05493164 C20.72925321 -0.05993051 22.83667682 -0.06673181 24.9440918 -0.07543945 C27.99008024 -0.08770131 31.03602245 -0.09327292 34.08203125 -0.09765625 C35.47335014 -0.10539818 35.47335014 -0.10539818 36.89277649 -0.11329651 C43.3109638 -0.11383508 49.61874248 0.32061834 56 1 C56 1.33 56 1.66 56 2 C38.51 2 21.02 2 3 2 C3.33 4.31 3.66 6.62 4 9 C1.43135272 7.71567636 1.053461 6.63365249 0 4 C0 2.68 0 1.36 0 0 Z " fill="#CCC329" transform="translate(54,299)"/>
<path d="M0 0 C3.63 0 7.26 0 11 0 C11 0.66 11 1.32 11 2 C1.33960055 3.26693763 -8.27721582 3.08984092 -18 3 C-18.11593506 3.64026123 -18.23187012 4.28052246 -18.35131836 4.94018555 C-18.87957808 7.85604195 -19.40853239 10.77177194 -19.9375 13.6875 C-20.11990234 14.69490234 -20.30230469 15.70230469 -20.49023438 16.74023438 C-20.66748047 17.71669922 -20.84472656 18.69316406 -21.02734375 19.69921875 C-21.18968506 20.59471436 -21.35202637 21.49020996 -21.51928711 22.4128418 C-21.99012096 24.94683182 -22.48842035 27.47395107 -23 30 C-23.33 30 -23.66 30 -24 30 C-22.97412823 4.97412823 -22.97412823 4.97412823 -20 2 C-18.5112814 1.91330568 -17.018555 1.89296506 -15.52734375 1.90234375 C-14.62822266 1.90556641 -13.72910156 1.90878906 -12.80273438 1.91210938 C-11.85720703 1.92048828 -10.91167969 1.92886719 -9.9375 1.9375 C-8.98810547 1.94201172 -8.03871094 1.94652344 -7.06054688 1.95117188 C-4.70696935 1.9629989 -2.35351523 1.97947975 0 2 C0 1.34 0 0.68 0 0 Z " fill="#0E668D" transform="translate(74,128)"/>
<path d="M0 0 C1.66611905 -0.042721 3.33382885 -0.04063832 5 0 C7.70071153 2.70071153 6.18565282 10.79670964 6.1875 14.4375 C6.19974609 15.70400391 6.21199219 16.97050781 6.22460938 18.27539062 C6.22750977 20.08620117 6.22750977 20.08620117 6.23046875 21.93359375 C6.23457764 23.04790771 6.23868652 24.16222168 6.24291992 25.31030273 C6 28 6 28 4 30 C1.47802734 30.22705078 1.47802734 30.22705078 -1.6640625 30.1953125 C-2.78554687 30.18886719 -3.90703125 30.18242187 -5.0625 30.17578125 C-6.238125 30.15902344 -7.41375 30.14226562 -8.625 30.125 C-10.40003906 30.11146484 -10.40003906 30.11146484 -12.2109375 30.09765625 C-15.14082523 30.07402812 -18.0703134 30.04108514 -21 30 C-21 29.67 -21 29.34 -21 29 C-19.78183594 28.95101562 -18.56367187 28.90203125 -17.30859375 28.8515625 C-15.68487563 28.77647727 -14.06117874 28.70093198 -12.4375 28.625 C-11.63763672 28.5940625 -10.83777344 28.563125 -10.01367188 28.53125 C-8.8293457 28.47324219 -8.8293457 28.47324219 -7.62109375 28.4140625 C-6.9036499 28.3826416 -6.18620605 28.3512207 -5.44702148 28.31884766 C-2.23171849 27.89989268 0.88227486 26.89077861 4 26 C3.505 13.625 3.505 13.625 3 1 C2.01 0.67 1.02 0.34 0 0 Z " fill="#1388B1" transform="translate(119,127)"/>
<path d="M0 0 C0 0.33 0 0.66 0 1 C-10.67088188 2.29610947 -21.32340673 3.23942376 -32.0625 3.75 C-33.11501953 3.80663818 -34.16753906 3.86327637 -35.25195312 3.92163086 C-36.23228516 3.96296143 -37.21261719 4.00429199 -38.22265625 4.046875 C-39.53375366 4.10633301 -39.53375366 4.10633301 -40.87133789 4.16699219 C-43 4 -43 4 -45 2 C-43.34974073 0.34974073 -41.37631359 0.77411428 -39.1015625 0.68359375 C-38.07281006 0.64161865 -37.04405762 0.59964355 -35.98413086 0.55639648 C-34.87561768 0.51716064 -33.76710449 0.4779248 -32.625 0.4375 C-30.94386108 0.37381226 -30.94386108 0.37381226 -29.22875977 0.30883789 C-19.48269525 -0.03535269 -9.75060922 -0.10459533 0 0 Z " fill="#116487" transform="translate(99,206)"/>
<path d="M0 0 C10.395 0.99 10.395 0.99 21 2 C21 2.66 21 3.32 21 4 C25.62 4.66 30.24 5.32 35 6 C35 6.66 35 7.32 35 8 C37.475 8.495 37.475 8.495 40 9 C40 9.33 40 9.66 40 10 C33.6471238 10.48868278 28.52675146 8.24576793 22.64453125 6.16796875 C13.61637814 3.32655002 4.38751832 3.28211195 -5 3 C-5 2.67 -5 2.34 -5 2 C-3.35 1.67 -1.7 1.34 0 1 C0 0.67 0 0.34 0 0 Z " fill="#B6AF1B" transform="translate(197,43)"/>
<path d="M0 0 C2.22825644 2.22825644 2.69239369 3.65761628 3.625 6.625 C3.88539063 7.44226563 4.14578125 8.25953125 4.4140625 9.1015625 C4.60742188 9.72804688 4.80078125 10.35453125 5 11 C5.66 11 6.32 11 7 11 C7.42152344 11.91523437 7.84304688 12.83046875 8.27734375 13.7734375 C8.82519531 14.96195313 9.37304688 16.15046875 9.9375 17.375 C10.48277344 18.55835937 11.02804687 19.74171875 11.58984375 20.9609375 C12.37354023 22.6499011 13.1673202 24.33464041 14 26 C12.68 25.34 11.36 24.68 10 24 C10 23.34 10 22.68 10 22 C6.95086772 20.98888907 6.95086772 20.98888907 4 22 C4.226875 20.7625 4.45375 19.525 4.6875 18.25 C5.17020696 14.80846688 5.17020696 14.80846688 3.5625 11.75 C3.046875 11.1725 2.53125 10.595 2 10 C2 8.68 2 7.36 2 6 C0.68 5.67 -0.64 5.34 -2 5 C-2 3.68 -2 2.36 -2 1 C-1.34 0.67 -0.68 0.34 0 0 Z " fill="#ACA61A" transform="translate(255,100)"/>
<path d="M0 0 C1.09957031 0.00451172 2.19914062 0.00902344 3.33203125 0.01367188 C6.01308003 0.02532861 8.69400932 0.04168983 11.375 0.0625 C11.375 0.3925 11.375 0.7225 11.375 1.0625 C8.08413156 1.40403092 4.79220923 1.73416646 1.5 2.0625 C0.5821875 2.15789062 -0.335625 2.25328125 -1.28125 2.3515625 C-6.75813588 2.89153716 -12.04194628 3.10948089 -17.54174805 2.81079102 C-20.2095293 3.13312577 -20.91068298 3.9274978 -22.5625 6 C-23.243125 7.010625 -23.92375 8.02125 -24.625 9.0625 C-25.615 9.3925 -26.605 9.7225 -27.625 10.0625 C-25.73468003 3.51908473 -25.73468003 3.51908473 -22.625 1.0625 C-15.43435646 -0.73645386 -7.35844527 -0.05811652 0 0 Z " fill="#1494C1" transform="translate(51.625,89.9375)"/>
<path d="M0 0 C0 0.66 0 1.32 0 2 C-13.70719411 2.10657507 -27.33207359 2.14069132 -41 1 C-41 0.67 -41 0.34 -41 0 C-27.26050776 -1.43279621 -13.74085904 -1.18565194 0 0 Z " fill="#AFA513" transform="translate(341,277)"/>
<path d="M0 0 C2.97956042 0.93625157 5.95857225 1.87423757 8.9375 2.8125 C10.18370117 3.20405273 10.18370117 3.20405273 11.45507812 3.60351562 C16.3220109 5.13745164 21.16655325 6.71755542 25.98828125 8.38867188 C28.97398656 9.29597844 31.90102695 9.67032202 35 10 C35 10.33 35 10.66 35 11 C30.1894644 11.07758928 25.4247245 11.04042092 20.625 10.6875 C19.81289062 10.62949219 19.00078125 10.57148438 18.1640625 10.51171875 C15.57070188 9.89848727 14.80686013 8.89428885 13 7 C11.13468481 6.2909344 11.13468481 6.2909344 9.125 5.9375 C5.92407056 5.23471291 3.01331964 4.31832734 0 3 C0 2.01 0 1.02 0 0 Z " fill="#C2BC1F" transform="translate(133,309)"/>
<path d="M0 0 C1.24432933 3.56483537 0.73714207 5.89983482 -0.25 9.5 C-0.52972656 10.54671875 -0.80945312 11.5934375 -1.09765625 12.671875 C-1.39542969 13.77015625 -1.69320313 14.8684375 -2 16 C-2.56728722 18.24879778 -3.13002231 20.49875038 -3.6875 22.75 C-4.125 24.5 -4.5625 26.25 -5 28 C-5.66 28 -6.32 28 -7 28 C-7.33 31.3 -7.66 34.6 -8 38 C-8.66 38 -9.32 38 -10 38 C-8.45483101 29.1673319 -6.86602292 20.5169549 -4 12 C-3.64421875 10.91976562 -3.2884375 9.83953125 -2.921875 8.7265625 C-1.95788584 5.81422906 -0.98356766 2.90576841 0 0 Z " fill="#117FAA" transform="translate(20,106)"/>
<path d="M0 0 C0.66 0.33 1.32 0.66 2 1 C2 1.66 2 2.32 2 3 C2.66 3 3.32 3 4 3 C4.99 4.98 5.98 6.96 7 9 C6 10 6 10 3.86694336 10.11352539 C2.95050049 10.10828857 2.03405762 10.10305176 1.08984375 10.09765625 C0.10048828 10.09443359 -0.88886719 10.09121094 -1.90820312 10.08789062 C-2.94912109 10.07951172 -3.99003906 10.07113281 -5.0625 10.0625 C-6.10728516 10.05798828 -7.15207031 10.05347656 -8.22851562 10.04882812 C-10.8190666 10.03699913 -13.40950559 10.02051689 -16 10 C-16 9.34 -16 8.68 -16 8 C-8.08 7.505 -8.08 7.505 0 7 C0 4.69 0 2.38 0 0 Z " fill="#938817" transform="translate(315,56)"/>
<path d="M0 0 C0.33 0.66 0.66 1.32 1 2 C0.67 2.99 0.34 3.98 0 5 C0.33 5.66 0.66 6.32 1 7 C-1 9 -1 9 -3.875 9.9375 C-6.9973832 10.80347615 -6.9973832 10.80347615 -9.125 12.6875 C-11 14 -11 14 -13.25 13.6875 C-13.8275 13.460625 -14.405 13.23375 -15 13 C-13.71034824 11.62437146 -12.37310707 10.29233607 -11 9 C-10.34 9 -9.68 9 -9 9 C-8.67 8.01 -8.34 7.02 -8 6 C-6.15234375 4.39453125 -6.15234375 4.39453125 -3.9375 2.8125 C-3.20402344 2.28269531 -2.47054687 1.75289062 -1.71484375 1.20703125 C-1.14894531 0.80871094 -0.58304688 0.41039062 0 0 Z " fill="#EDE514" transform="translate(78,39)"/>
<path d="M0 0 C4.58443875 0.02277039 9.1663748 0.10004335 13.75 0.1875 C15.05195313 0.19330078 16.35390625 0.19910156 17.6953125 0.20507812 C18.94570313 0.23408203 20.19609375 0.26308594 21.484375 0.29296875 C22.63647461 0.3086792 23.78857422 0.32438965 24.97558594 0.34057617 C28.85275249 1.18592868 29.8858812 2.74035545 32 6 C31.01 6.33 30.02 6.66 29 7 C28.67 6.01 28.34 5.02 28 4 C27.29391602 4.02094727 26.58783203 4.04189453 25.86035156 4.06347656 C22.65704624 4.14669298 19.45396837 4.19867785 16.25 4.25 C14.58324219 4.30027344 14.58324219 4.30027344 12.8828125 4.3515625 C11.81289063 4.36445312 10.74296875 4.37734375 9.640625 4.390625 C8.16384277 4.4220459 8.16384277 4.4220459 6.65722656 4.45410156 C3.30359304 3.88098889 2.14077979 2.56715917 0 0 Z " fill="#B7AD17" transform="translate(312,87)"/>
<path d="M0 0 C13.0448865 -0.11578302 25.9837256 0.10999833 39 1 C39 1.33 39 1.66 39 2 C34.75049279 2.19996081 30.50040099 2.3826241 26.25 2.5625 C25.06277344 2.61857422 23.87554687 2.67464844 22.65234375 2.73242188 C15.00943089 3.04565601 7.60416095 2.83820579 0 2 C0 1.34 0 0.68 0 0 Z " fill="#0F6A8D" transform="translate(40,277)"/>
<path d="M0 0 C6.09319105 7.54395083 8.46057206 16.81899128 11 26 C10.34 26.33 9.68 26.66 9 27 C9 26.34 9 25.68 9 25 C8.34 25 7.68 25 7 25 C7 23.02 7 21.04 7 19 C6.34 19 5.68 19 5 19 C4.731875 18.01 4.46375 17.02 4.1875 16 C3.20947219 12.53116756 1.95643368 9.22578681 0.5859375 5.89453125 C0 4 0 4 0 0 Z " fill="#DBD619" transform="translate(350,105)"/>
<path d="M0 0 C0 0.33 0 0.66 0 1 C-13.43509201 3.7865376 -26.29813909 4.37621274 -40 4 C-40 3.67 -40 3.34 -40 3 C-35.7504759 2.56702527 -31.50040365 2.14002697 -27.24975586 1.71826172 C-25.80753882 1.57434588 -24.36547614 1.42887349 -22.92358398 1.28173828 C-15.26791895 0.50157692 -7.70727207 -0.20667545 0 0 Z " fill="#0D6C92" transform="translate(103,86)"/>
<path d="M0 0 C1.09404518 3.33644983 0.89669485 5.7065788 0.1875 9.125 C0.01605469 9.99382812 -0.15539062 10.86265625 -0.33203125 11.7578125 C-1 14 -1 14 -3 16 C-5.6460471 15.79645792 -7.43222482 15.39307512 -9.625 13.875 C-12.122067 10.46990863 -14.2376784 6.85389156 -13.6875 2.5625 C-13.460625 2.046875 -13.23375 1.53125 -13 1 C-11 5 -9 9 -7 13 C-6.01 13 -5.02 13 -4 13 C-3.79503906 12.14535156 -3.59007812 11.29070312 -3.37890625 10.41015625 C-3.10949219 9.30542969 -2.84007812 8.20070312 -2.5625 7.0625 C-2.29566406 5.96035156 -2.02882813 4.85820312 -1.75390625 3.72265625 C-1 1 -1 1 0 0 Z " fill="#B3AC1F" transform="translate(324,208)"/>
<path d="M0 0 C6.09238208 2.21541167 11.47667088 5.65252781 17 9 C15.68 9.33 14.36 9.66 13 10 C12.67 9.34 12.34 8.68 12 8 C9.67140463 7.06709284 9.67140463 7.06709284 7 7 C4.69495956 8.33153266 4.69495956 8.33153266 3 10 C2.34 8.68 1.68 7.36 1 6 C1.66 6 2.32 6 3 6 C2.2575 5.071875 2.2575 5.071875 1.5 4.125 C0 2 0 2 0 0 Z " fill="#D8D315" transform="translate(271,24)"/>
<path d="M0 0 C-0.62069853 3.54051508 -1.544059 6.72483014 -2.875 10.0625 C-3.20242188 10.89910156 -3.52984375 11.73570312 -3.8671875 12.59765625 C-5 15 -5 15 -8 19 C-7.34 15.37 -6.68 11.74 -6 8 C-5.34 8 -4.68 8 -4 8 C-4 6.68 -4 5.36 -4 4 C-4.99 4 -5.98 4 -7 4 C-7 4.66 -7 5.32 -7 6 C-7.66 5.67 -8.32 5.34 -9 5 C-8.67 4.01 -8.34 3.02 -8 2 C-5.10441559 0.5522078 -3.25811062 0 0 0 Z " fill="#C9C016" transform="translate(353,250)"/>
<path d="M0 0 C0.66 0.33 1.32 0.66 2 1 C0.6875 2.5 0.6875 2.5 -1 4 C-1.99 4 -2.98 4 -4 4 C-4 4.66 -4 5.32 -4 6 C-4.99 6 -5.98 6 -7 6 C-7 6.66 -7 7.32 -7 8 C-12.80766296 9.5056904 -17.9981863 10.21824777 -24 10 C-20.51095699 7.67397132 -16.96609994 6.58882418 -13 5.375 C-12.27554688 5.14554687 -11.55109375 4.91609375 -10.8046875 4.6796875 C-7.77088102 3.73931944 -5.19456412 3 -2 3 C-2 2.34 -2 1.68 -2 1 C-1.34 0.67 -0.68 0.34 0 0 Z " fill="#A8A017" transform="translate(238,309)"/>
<path d="M0 0 C0.92232422 0.10828125 0.92232422 0.10828125 1.86328125 0.21875 C3.07564453 0.35796875 3.07564453 0.35796875 4.3125 0.5 C5.51326172 0.63921875 5.51326172 0.63921875 6.73828125 0.78125 C9.11896555 1.04813463 9.11896555 1.04813463 12 1 C12.12375 1.94875 12.2475 2.8975 12.375 3.875 C12.71687177 7.08667191 12.71687177 7.08667191 15 9 C12 9 12 9 9 8 C9 7.34 9 6.68 9 6 C8.34 6 7.68 6 7 6 C7 5.34 7 4.68 7 4 C5.35 3.67 3.7 3.34 2 3 C2 2.34 2 1.68 2 1 C1.34 0.67 0.68 0.34 0 0 Z " fill="#CBC412" transform="translate(73,323)"/>
<path d="M0 0 C1.32 0 2.64 0 4 0 C4 0.66 4 1.32 4 2 C4.433125 2.433125 4.86625 2.86625 5.3125 3.3125 C7.75161015 5.75161015 10 8.45339581 10 12 C10.99 11.67 11.98 11.34 13 11 C13 13.97 13 16.94 13 20 C10.63616992 16.9255707 8.47831367 13.75789862 6.375 10.5 C5.76398438 9.5615625 5.15296875 8.623125 4.5234375 7.65625 C3.18353734 5.32001382 2.61841852 3.56702026 2 1 C1.34 0.67 0.68 0.34 0 0 Z " fill="#CFC818" transform="translate(297,99)"/>
<path d="M0 0 C2.66666667 1.33333333 5.33333333 2.66666667 8 4 C7.67 4.66 7.34 5.32 7 6 C7.76848684 8.46987439 7.76848684 8.46987439 8.9375 11.125 C9.50791016 12.49011719 9.50791016 12.49011719 10.08984375 13.8828125 C10.39019531 14.58148438 10.69054687 15.28015625 11 16 C10.34 16.66 9.68 17.32 9 18 C6 12.375 6 12.375 6 9 C5.34 9 4.68 9 4 9 C2.68 6.03 1.36 3.06 0 0 Z " fill="#DBD31B" transform="translate(255,214)"/>
<path d="M0 0 C2.6296011 -0.25273054 5.00248401 -0.32810743 7.625 -0.25 C8.7078125 -0.23356445 8.7078125 -0.23356445 9.8125 -0.21679688 C14.59938346 -0.11743016 19.27257901 0.2120965 24 1 C24 1.33 24 1.66 24 2 C15.42 2.33 6.84 2.66 -2 3 C-1.34 2.01 -0.68 1.02 0 0 Z " fill="#0F6C93" transform="translate(95,127)"/>
<path d="M0 0 C0.33 0 0.66 0 1 0 C1.33 7.26 1.66 14.52 2 22 C0.02 22 -1.96 22 -4 22 C-3.01 21.67 -2.02 21.34 -1 21 C-1.01160156 19.73542969 -1.02320313 18.47085938 -1.03515625 17.16796875 C-1.04453566 15.50781398 -1.0536357 13.84765761 -1.0625 12.1875 C-1.07087891 11.35412109 -1.07925781 10.52074219 -1.08789062 9.66210938 C-1.09111328 8.85966797 -1.09433594 8.05722656 -1.09765625 7.23046875 C-1.10289307 6.49207764 -1.10812988 5.75368652 -1.11352539 4.99291992 C-1 3 -1 3 0 0 Z " fill="#169DCF" transform="translate(174,180)"/>
<path d="M0 0 C0.66 0.66 1.32 1.32 2 2 C1.26394531 2.06058594 0.52789062 2.12117188 -0.23046875 2.18359375 C-1.69419922 2.30927734 -1.69419922 2.30927734 -3.1875 2.4375 C-4.15042969 2.51871094 -5.11335938 2.59992188 -6.10546875 2.68359375 C-8.9773396 2.94342858 -8.9773396 2.94342858 -11.65625 3.59375 C-14.85387571 4.14800512 -17.02954804 3.17436473 -20 2 C-20 1.67 -20 1.34 -20 1 C-13.40453552 0.13502105 -6.64758446 -0.67044014 0 0 Z " fill="#1275A0" transform="translate(130,85)"/>
<path d="M0 0 C-0.639375 0.2475 -1.27875 0.495 -1.9375 0.75 C-4.19303909 1.80283433 -4.19303909 1.80283433 -4.62890625 4.078125 C-4.75136719 4.71234375 -4.87382813 5.3465625 -5 6 C-6.41377782 6.36552803 -7.83120576 6.71695495 -9.25 7.0625 C-10.03890625 7.25972656 -10.8278125 7.45695312 -11.640625 7.66015625 C-14.10394822 8.01497267 -15.65604132 7.76877544 -18 7 C-11.5 3 -11.5 3 -7 3 C-6.67 2.01 -6.34 1.02 -6 0 C-3.50907189 -1.24546405 -2.58919267 -0.7767578 0 0 Z " fill="#BEB418" transform="translate(112,21)"/>
<path d="M0 0 C-0.33 0.66 -0.66 1.32 -1 2 C-2.884586 2.20191993 -4.7695543 2.40088112 -6.65625 2.58203125 C-10.72926645 3.30838585 -14.3184203 5.16773232 -18 7 C-17.82421875 5.14453125 -17.82421875 5.14453125 -17 3 C-11.71185398 0.00008071 -5.9472426 -1.92883544 0 0 Z " fill="#C7BF1F" transform="translate(257,305)"/>
<path d="M0 0 C6.20104812 -0.27560214 11.93184478 0.77100654 18 2 C18.33 3.32 18.66 4.64 19 6 C12.54945018 4.64746536 6.28894321 2.96939767 0 1 C0 0.67 0 0.34 0 0 Z " fill="#AB9F19" transform="translate(131,353)"/>
<path d="M0 0 C0.33 0.99 0.66 1.98 1 3 C-1.5395837 3.67561372 -4.08118835 4.34065828 -6.625 5 C-7.33785156 5.19078125 -8.05070313 5.3815625 -8.78515625 5.578125 C-12.95848544 6.65017287 -16.65178751 7.21946814 -21 7 C-17.73792818 4.82528545 -14.72813796 3.98038691 -11 3 C-9.0205979 2.45919431 -7.04144124 1.91748968 -5.0625 1.375 C-3.37511352 0.9162489 -1.68765239 0.4577719 0 0 Z " fill="#9D981E" transform="translate(143,8)"/>
<path d="M0 0 C1.45599609 0.24556641 1.45599609 0.24556641 2.94140625 0.49609375 C7.28276888 1.11628841 11.55997771 1.11126417 15.9375 1.0625 C16.71673828 1.05798828 17.49597656 1.05347656 18.29882812 1.04882812 C20.19925268 1.03716908 22.09963706 1.01923877 24 1 C23.67 1.99 23.34 2.98 23 4 C15.1683819 4.2700558 7.72720775 3.23107719 0 2 C0 1.34 0 0.68 0 0 Z " fill="#C6BA1E" transform="translate(154,358)"/>
<path d="M0 0 C2.475 0.495 2.475 0.495 5 1 C0.45899638 5.22783096 -5.1235617 8.08205665 -11 10 C-13.33984375 9.63671875 -13.33984375 9.63671875 -15 9 C-14.01 9 -13.02 9 -12 9 C-12 8.34 -12 7.68 -12 7 C-5.41484716 4.08733624 -5.41484716 4.08733624 -2.625 3.5 C-2.08875 3.335 -1.5525 3.17 -1 3 C-0.67 2.01 -0.34 1.02 0 0 Z " fill="#B6B01C" transform="translate(267,340)"/>
<path d="M0 0 C1.32 0.33 2.64 0.66 4 1 C4 2.65 4 4.3 4 6 C4.66 6.33 5.32 6.66 6 7 C5.67 7.66 5.34 8.32 5 9 C5.66 9 6.32 9 7 9 C7.66 11.64 8.32 14.28 9 17 C6.20546094 14.51596528 4.59290588 11.77067154 2.8125 8.5 C2.28269531 7.5409375 1.75289062 6.581875 1.20703125 5.59375 C0 3 0 3 0 0 Z " fill="#0E709A" transform="translate(26,256)"/>
<path d="M0 0 C0.66 1.32 1.32 2.64 2 4 C2.66 4 3.32 4 4 4 C8.25 10.375 8.25 10.375 8.125 14.6875 C8.10695313 15.49574219 8.08890625 16.30398438 8.0703125 17.13671875 C8.03550781 18.05904297 8.03550781 18.05904297 8 19 C7.73445313 18.46503906 7.46890625 17.93007813 7.1953125 17.37890625 C6.30637706 15.60975043 5.4030317 13.84782025 4.4921875 12.08984375 C3.69167969 10.52943359 3.69167969 10.52943359 2.875 8.9375 C2.33617187 7.89464844 1.79734375 6.85179687 1.2421875 5.77734375 C0 3 0 3 0 0 Z " fill="#BBB41B" transform="translate(271,242)"/>
<path d="M0 0 C6.27 0.33 12.54 0.66 19 1 C19 1.33 19 1.66 19 2 C13.72 2 8.44 2 3 2 C3.33 4.31 3.66 6.62 4 9 C1.43135272 7.71567636 1.053461 6.63365249 0 4 C0 2.68 0 1.36 0 0 Z " fill="#B9B320" transform="translate(54,299)"/>
<path d="M0 0 C3 3 3 3 3.2487793 5.36010742 C3.16237183 6.71906128 3.16237183 6.71906128 3.07421875 8.10546875 C3.01943359 9.08837891 2.96464844 10.07128906 2.90820312 11.08398438 C2.83537109 12.10814453 2.76253906 13.13230469 2.6875 14.1875 C2.62626953 15.22326172 2.56503906 16.25902344 2.50195312 17.32617188 C2.34864013 19.88531957 2.1807893 22.44267045 2 25 C1.67 25 1.34 25 1 25 C0.67 16.75 0.34 8.5 0 0 Z " fill="#9F960E" transform="translate(246,246)"/>
<path d="M0 0 C0.66 0 1.32 0 2 0 C1.48446121 6.49850211 0.53332291 12.66226532 -1 19 C-1.33 19 -1.66 19 -2 19 C-2.09585232 12.96130397 -2.07822521 6.96351721 -1 1 C-0.67 0.67 -0.34 0.34 0 0 Z " fill="#BCB61B" transform="translate(364,202)"/>
<path d="M0 0 C4.75 0.75 4.75 0.75 7 3 C6.34 4.32 5.68 5.64 5 7 C5.99 7.33 6.98 7.66 8 8 C7.01 9.485 7.01 9.485 6 11 C4.68 9.02 3.36 7.04 2 5 C1.34 5.99 0.68 6.98 0 8 C0 5.36 0 2.72 0 0 Z " fill="#A8A00E" transform="translate(248,202)"/>
<path d="M0 0 C4.3715728 5.24588737 7.05126494 11.50421648 9 18 C6.5 15.6875 6.5 15.6875 4 13 C4 12.01 4 11.02 4 10 C3.01 9.67 2.02 9.34 1 9 C1 7.35 1 5.7 1 4 C0.34 4 -0.32 4 -1 4 C-0.67 2.68 -0.34 1.36 0 0 Z " fill="#B1AD18" transform="translate(293,174)"/>
<path d="M0 0 C1.58206057 0.00667536 3.16410534 0.0186375 4.74609375 0.03515625 C5.55240234 0.03966797 6.35871094 0.04417969 7.18945312 0.04882812 C9.18753131 0.06065107 11.18557158 0.07858711 13.18359375 0.09765625 C9.71377677 2.41086757 7.73694144 2.5349438 3.62109375 2.84765625 C2.46480469 2.945625 1.30851562 3.04359375 0.1171875 3.14453125 C-2.81640625 3.09765625 -2.81640625 3.09765625 -4.81640625 1.09765625 C-3.81640625 0.09765625 -3.81640625 0.09765625 0 0 Z " fill="#1A8BB6" transform="translate(58.81640625,206.90234375)"/>
<path d="M0 0 C-2 2 -2 2 -4.52197266 2.22705078 C-5.5588623 2.21657715 -6.59575195 2.20610352 -7.6640625 2.1953125 C-8.78554687 2.18886719 -9.90703125 2.18242187 -11.0625 2.17578125 C-12.238125 2.15902344 -13.41375 2.14226562 -14.625 2.125 C-16.40003906 2.11146484 -16.40003906 2.11146484 -18.2109375 2.09765625 C-21.14082523 2.07402812 -24.0703134 2.04108514 -27 2 C-27 1.67 -27 1.34 -27 1 C-25.75863281 0.93941406 -24.51726562 0.87882813 -23.23828125 0.81640625 C-21.59634423 0.73196377 -19.95441768 0.64731764 -18.3125 0.5625 C-17.08756836 0.50352539 -17.08756836 0.50352539 -15.83789062 0.44335938 C-1.01100852 -0.33700284 -1.01100852 -0.33700284 0 0 Z " fill="#1691C0" transform="translate(125,155)"/>
<path d="M0 0 C1.33332095 2.6666419 0.67102033 4.16680303 0 7 C1.32 7 2.64 7 4 7 C4 7.66 4 8.32 4 9 C4.99 9.33 5.98 9.66 7 10 C3.37 9.67 -0.26 9.34 -4 9 C-2.25 2.25 -2.25 2.25 0 0 Z " fill="#E4DA12" transform="translate(62,53)"/>
<path d="M0 0 C1.98 0 3.96 0 6 0 C6.33 0.99 6.66 1.98 7 3 C9.97851562 2.90234375 9.97851562 2.90234375 12.95703125 2.8046875 C15 3 15 3 18 5 C12.90956465 6.80628351 8.73872364 5.04224843 4 3 C1.4375 1.3125 1.4375 1.3125 0 0 Z " fill="#B4AC19" transform="translate(250,59)"/>
<path d="M0 0 C1.134375 0.020625 2.26875 0.04125 3.4375 0.0625 C0.03866186 1.90806076 -3.44053706 3.08891213 -7.125 4.25 C-8.26066406 4.61480469 -9.39632812 4.97960938 -10.56640625 5.35546875 C-13.5625 6.0625 -13.5625 6.0625 -16.5625 5.0625 C-13.50905732 2.10158588 -12.14658162 1.09170408 -7.8125 0.875 C-6.74 0.936875 -5.6675 0.99875 -4.5625 1.0625 C-3.5625 0.0625 -3.5625 0.0625 0 0 Z " fill="#C2B921" transform="translate(159.5625,45.9375)"/>
<path d="M0 0 C0.66 0 1.32 0 2 0 C2.33 0.99 2.66 1.98 3 3 C3.66 3.33 4.32 3.66 5 4 C5.62852934 6.33247815 6.15535246 8.69291467 6.625 11.0625 C6.88539063 12.35285156 7.14578125 13.64320313 7.4140625 14.97265625 C7.60742188 15.97167969 7.80078125 16.97070312 8 18 C4.61400486 16.30700243 4.09592498 12.39989635 2.875 9 C2.59785156 8.24976563 2.32070313 7.49953125 2.03515625 6.7265625 C0 1.17249076 0 1.17249076 0 0 Z " fill="#ABA719" transform="translate(313,126)"/>
<path d="M0 0 C0.66 0.33 1.32 0.66 2 1 C2 1.66 2 2.32 2 3 C2.66 3 3.32 3 4 3 C4.99 4.98 5.98 6.96 7 9 C3.7 9 0.4 9 -3 9 C-2.01 8.34 -1.02 7.68 0 7 C0.25015873 3.41642759 0.25015873 3.41642759 0 0 Z " fill="#C6BF27" transform="translate(315,56)"/>
<path d="M0 0 C1.2065625 0.0309375 1.2065625 0.0309375 2.4375 0.0625 C2.4375 0.7225 2.4375 1.3825 2.4375 2.0625 C1.7775 2.0625 1.1175 2.0625 0.4375 2.0625 C0.0353125 3.2071875 0.0353125 3.2071875 -0.375 4.375 C-1.5237484 6.97479902 -2.5310876 8.16465992 -4.5625 10.0625 C-4.42200482 8.58281676 -4.27495174 7.10375484 -4.125 5.625 C-4.04378906 4.80128906 -3.96257812 3.97757812 -3.87890625 3.12890625 C-3.4093501 0.06229881 -3.15462671 0.07694211 0 0 Z " fill="#B7B31B" transform="translate(318.5625,300.9375)"/>
<path d="M0 0 C2.46200213 2.24666667 3.98692 4.50860051 5.5625 7.4375 C5.97628906 8.19933594 6.39007813 8.96117187 6.81640625 9.74609375 C7.90457363 11.81828047 8.96288277 13.90186883 10 16 C9.34 16.66 8.68 17.32 8 18 C7.67 16.35 7.34 14.7 7 13 C6.01 12.67 5.02 12.34 4 12 C4 10.68 4 9.36 4 8 C3.34 8 2.68 8 2 8 C2 6.68 2 5.36 2 4 C1.34 4 0.68 4 0 4 C0 2.68 0 1.36 0 0 Z " fill="#0E78A3" transform="translate(62,236)"/>
<path d="M0 0 C4.13767263 4.43322068 5.95528874 9.39879629 8 15 C6.06640625 14.19140625 6.06640625 14.19140625 4 13 C3.30899447 11.00827818 2.64097297 9.00838196 2 7 C1.01 6.67 0.02 6.34 -1 6 C-0.67 4.02 -0.34 2.04 0 0 Z " fill="#B9B319" transform="translate(285,159)"/>
<path d="M0 0 C3.3 0 6.6 0 10 0 C11.4783226 2.95664519 11.06032783 5.74229737 11 9 C9 7 9 7 8 3 C5.03 2.67 2.06 2.34 -1 2 C-0.67 1.34 -0.34 0.68 0 0 Z " fill="#1A87AD" transform="translate(160,83)"/>
<path d="M0 0 C0.33 0.66 0.66 1.32 1 2 C0.67 2.66 0.34 3.32 0 4 C6.93 4.495 6.93 4.495 14 5 C14 5.33 14 5.66 14 6 C8.39436958 6.82622671 3.57710648 7.06795656 -2 6 C-1.125 1.125 -1.125 1.125 0 0 Z " fill="#B6AD1A" transform="translate(58,58)"/>
<path d="M0 0 C0.92232422 0.63228516 0.92232422 0.63228516 1.86328125 1.27734375 C3.07564453 2.09912109 3.07564453 2.09912109 4.3125 2.9375 C5.11300781 3.48277344 5.91351563 4.02804688 6.73828125 4.58984375 C9.0258143 6.13837326 9.0258143 6.13837326 12 7 C12 7.66 12 8.32 12 9 C10.68 9 9.36 9 8 9 C8 8.34 8 7.68 8 7 C7.01 7 6.02 7 5 7 C5 6.34 5 5.68 5 5 C4.34 5 3.68 5 3 5 C2.67 5.66 2.34 6.32 2 7 C0 4 0 4 0 0 Z " fill="#CCC71E" transform="translate(289,34)"/>
<path d="M0 0 C0.66 0 1.32 0 2 0 C1.67 5.28 1.34 10.56 1 16 C0.67 16 0.34 16 0 16 C-0.38971999 13.89850989 -0.76131477 11.7936518 -1.125 9.6875 C-1.33382813 8.51574219 -1.54265625 7.34398437 -1.7578125 6.13671875 C-2 3 -2 3 0 0 Z " fill="#A69D1B" transform="translate(366,186)"/>
<path d="M0 0 C2.78637633 4.1795645 1.79562512 6.14668677 1 11 C0.34 11 -0.32 11 -1 11 C-1.33 14.3 -1.66 17.6 -2 21 C-2.66 21 -3.32 21 -4 21 C-3.52121172 18.43742878 -3.04198207 15.87494141 -2.5625 13.3125 C-2.42779297 12.59126953 -2.29308594 11.87003906 -2.15429688 11.12695312 C-1.45901155 7.41311202 -0.75225298 3.70283746 0 0 Z " fill="#147499" transform="translate(14,123)"/>
<path d="M0 0 C2.75105608 5.50211216 2.43001256 10.10119821 1 16 C0.01 16 -0.98 16 -2 16 C-1.34 10.72 -0.68 5.44 0 0 Z " fill="#BAB716" transform="translate(326,189)"/>
<path d="M0 0 C3.69749741 4.07999715 5.2589664 7.86395088 7 13 C6.34 13 5.68 13 5 13 C5 12.34 5 11.68 5 11 C3.35 10.67 1.7 10.34 0 10 C0 6.7 0 3.4 0 0 Z " fill="#BCB61A" transform="translate(276,141)"/>
<path d="M0 0 C0.33 0.66 0.66 1.32 1 2 C1.556875 1.814375 2.11375 1.62875 2.6875 1.4375 C5.44264447 0.91625645 7.32326225 1.2042131 10 2 C10.33 2.66 10.66 3.32 11 4 C7.0186217 5.3271261 3.14954773 5.06915913 -1 5 C-0.67 3.35 -0.34 1.7 0 0 Z " fill="#0CA6DF" transform="translate(112,123)"/>
<path d="M0 0 C6.75 -0.125 6.75 -0.125 9 1 C9 1.66 9 2.32 9 3 C9.99 3.33 10.98 3.66 12 4 C12 4.66 12 5.32 12 6 C10.55903414 5.57405412 9.12231288 5.13373367 7.6875 4.6875 C6.88699219 4.44386719 6.08648437 4.20023438 5.26171875 3.94921875 C2.90035427 2.95817977 1.66120007 1.91925057 0 0 Z " fill="#C1BC1A" transform="translate(237,53)"/>
<path d="M0 0 C1.24546405 2.49092811 0.7767578 3.41080733 0 6 C-1.65 6 -3.3 6 -5 6 C-5 6.66 -5 7.32 -5 8 C-5.99 8 -6.98 8 -8 8 C-8 8.66 -8 9.32 -8 10 C-8.99 9.67 -9.98 9.34 -11 9 C-10.34 9 -9.68 9 -9 9 C-8.67 8.01 -8.34 7.02 -8 6 C-6.15234375 4.39453125 -6.15234375 4.39453125 -3.9375 2.8125 C-3.20402344 2.28269531 -2.47054687 1.75289062 -1.71484375 1.20703125 C-1.14894531 0.80871094 -0.58304688 0.41039062 0 0 Z " fill="#ABA516" transform="translate(78,39)"/>
<path d="M0 0 C0.556875 0.165 1.11375 0.33 1.6875 0.5 C4.18691249 1.04041351 6.45045662 1.07082065 9 1 C5.28861183 3.94351476 2.560258 5.1403321 -2.1875 5.0625 C-4.0746875 5.0315625 -4.0746875 5.0315625 -6 5 C-2.25 3 -2.25 3 0 3 C0 2.01 0 1.02 0 0 Z " fill="#D9CD1C" transform="translate(116,58)"/>
<path d="M0 0 C0.33 0.66 0.66 1.32 1 2 C0.67 2.66 0.34 3.32 0 4 C-1.32 4 -2.64 4 -4 4 C-4.33 4.99 -4.66 5.98 -5 7 C-6.32796291 7.35412344 -7.66216607 7.68521554 -9 8 C-10.73026102 9.47890069 -10.73026102 9.47890069 -12 11 C-12 8 -12 8 -10.7578125 6.4453125 C-8.87735552 4.89915898 -7.07661089 3.90675123 -4.875 2.875 C-2.24117764 1.71869993 -2.24117764 1.71869993 0 0 Z " fill="#A9A61B" transform="translate(93,29)"/>
<path d="M0 0 C8.57142857 0.85714286 8.57142857 0.85714286 12 3 C11.67 3.66 11.34 4.32 11 5 C7.37 4.34 3.74 3.68 0 3 C0 2.01 0 1.02 0 0 Z " fill="#C0BA19" transform="translate(110,301)"/>
<path d="M0 0 C1.7400726 3.29989863 2.4285886 5.22842033 2 9 C1.12016387 11.73105202 0.08285414 14.33798356 -1 17 C-2.26237731 13.21286807 -1.67558873 10.74348067 -1.0625 6.8125 C-0.86785156 5.54019531 -0.67320312 4.26789063 -0.47265625 2.95703125 C-0.31667969 1.98121094 -0.16070312 1.00539062 0 0 Z " fill="#A39D15" transform="translate(360,219)"/>
<path d="M0 0 C0.99 0.33 1.98 0.66 3 1 C2.8125 2.8125 2.8125 2.8125 2 5 C-0.5625 6.75 -0.5625 6.75 -3 8 C-3.33 6.68 -3.66 5.36 -4 4 C-2.68 3.67 -1.36 3.34 0 3 C0 2.01 0 1.02 0 0 Z " fill="#E4DC1A" transform="translate(304,314)"/>
<path d="M0 0 C2.31 0.33 4.62 0.66 7 1 C6.01 2.485 6.01 2.485 5 4 C3.0546875 4.29296875 3.0546875 4.29296875 0.875 4.1875 C-0.40375 4.125625 -1.6825 4.06375 -3 4 C-3 3.34 -3 2.68 -3 2 C-2.01 2 -1.02 2 0 2 C0 1.34 0 0.68 0 0 Z " fill="#16A8E0" transform="translate(88,126)"/>
<path d="M0 0 C1.8125 0.125 1.8125 0.125 4 1 C5.6875 3.9375 5.6875 3.9375 7 7 C7.33 7.66 7.66 8.32 8 9 C6.68 8.34 5.36 7.68 4 7 C4 6.34 4 5.68 4 5 C0.95086772 3.98888907 0.95086772 3.98888907 -2 5 C-1.34 3.35 -0.68 1.7 0 0 Z " fill="#D3CC0E" transform="translate(261,117)"/>
<path d="M0 0 C0.99 0 1.98 0 3 0 C2.979375 0.9075 2.95875 1.815 2.9375 2.75 C2.98919074 5.43791858 3.07340854 7.49820306 4 10 C4.66 10.33 5.32 10.66 6 11 C5.01 11 4.02 11 3 11 C0 4.5 0 4.5 0 0 Z " fill="#DFD111" transform="translate(57,301)"/>
<path d="M0 0 C4.07763771 2.86536704 6.02677065 5.43041625 8 10 C5.50638429 8.79618552 3.31856917 7.54571278 1 6 C0.3125 2.875 0.3125 2.875 0 0 Z " fill="#127FAC" transform="translate(72,253)"/>
<path d="M0 0 C2.64 0.33 5.28 0.66 8 1 C7.67 2.98 7.34 4.96 7 7 C5.83040013 6.02433888 4.66438823 5.044375 3.5 4.0625 C2.8503125 3.51722656 2.200625 2.97195313 1.53125 2.41015625 C1.0259375 1.94480469 0.520625 1.47945313 0 1 C0 0.67 0 0.34 0 0 Z " fill="#D2CA14" transform="translate(62,313)"/>
<path d="M0 0 C0.33 0 0.66 0 1 0 C1 2.31 1 4.62 1 7 C4.63 7.33 8.26 7.66 12 8 C12 8.33 12 8.66 12 9 C7.71 9 3.42 9 -1 9 C-0.67 6.03 -0.34 3.06 0 0 Z " fill="#BDB41A" transform="translate(199,268)"/>
<path d="M0 0 C0.66 0 1.32 0 2 0 C2.33 3.3 2.66 6.6 3 10 C2.01 10 1.02 10 0 10 C0 6.7 0 3.4 0 0 Z " fill="#AFA71C" transform="translate(365,159)"/>
<path d="M0 0 C2.52394612 3.12488567 4.39701907 6.31314387 6 10 C5.67 10.66 5.34 11.32 5 12 C2.69857565 10.21825212 1.19965609 8.83695835 0.51171875 5.953125 C0.27676898 3.9753389 0.13248542 1.98728128 0 0 Z " fill="#A49E1C" transform="translate(350,105)"/>
<path d="M0 0 C1.32 0 2.64 0 4 0 C4 0.66 4 1.32 4 2 C4.474375 2.45375 4.94875 2.9075 5.4375 3.375 C7.22093737 5.22977487 7.5691993 6.50135592 8 9 C7.01 9.495 7.01 9.495 6 10 C2 4.375 2 4.375 2 1 C1.34 0.67 0.68 0.34 0 0 Z " fill="#9F9B1B" transform="translate(297,99)"/>
<path d="M0 0 C0.97608217 2.92824652 1.08226668 4.95613276 1 8 C-2.73639216 6.75453595 -3.18756513 5.36595047 -5 2 C-3.35 1.34 -1.7 0.68 0 0 Z " fill="#AFA91D" transform="translate(295,88)"/>
<path d="M0 0 C2 2 2 2 2 6 C2.66 6 3.32 6 4 6 C4.33 7.32 4.66 8.64 5 10 C4.01 10.495 4.01 10.495 3 11 C1.5 10 1.5 10 0 8 C-0.27345479 5.28153765 -0.13491285 2.74322801 0 0 Z " fill="#C2B618" transform="translate(302,192)"/>
<path d="M0 0 C2.64 1.65 5.28 3.3 8 5 C6.02 5.99 6.02 5.99 4 7 C2 5.75 2 5.75 0 4 C0 2.68 0 1.36 0 0 Z " fill="#C3BC1C" transform="translate(301,43)"/>
<path d="M0 0 C3.2542015 2.83430453 4.5206753 4.68607774 5 9 C3.68 8.67 2.36 8.34 1 8 C0.67 5.36 0.34 2.72 0 0 Z " fill="#B3AD19" transform="translate(345,96)"/>
<path d="M0 0 C0.66 0.33 1.32 0.66 2 1 C-1.625 7.875 -1.625 7.875 -5 9 C-3.90931332 5.22454612 -3.0916909 2.52956528 0 0 Z " fill="#0C6283" transform="translate(29,91)"/>
<path d="M0 0 C2.19050021 0.09017996 4.378466 0.24666208 6.5625 0.4375 C7.76003906 0.53933594 8.95757812 0.64117187 10.19140625 0.74609375 C11.11824219 0.82988281 12.04507813 0.91367187 13 1 C13 1.33 13 1.66 13 2 C11.41870971 2.22331199 9.83478911 2.42804644 8.25 2.625 C6.92742187 2.79902344 6.92742187 2.79902344 5.578125 2.9765625 C2.77140122 3.00207817 1.36615134 2.44843844 -1 1 C-0.67 0.67 -0.34 0.34 0 0 Z " fill="#A39A1D" transform="translate(178,43)"/>
<path d="M0 0 C-0.33 0.66 -0.66 1.32 -1 2 C-3.64 2 -6.28 2 -9 2 C-9 1.34 -9 0.68 -9 0 C-5.52176885 -1.15941038 -3.54104422 -0.70820884 0 0 Z " fill="#CFC619" transform="translate(257,305)"/>
<path d="M0 0 C1.65 0 3.3 0 5 0 C5 0.66 5 1.32 5 2 C6.65 2.33 8.3 2.66 10 3 C10 3.33 10 3.66 10 4 C7.25 4.25 7.25 4.25 4 4 C1.625 2 1.625 2 0 0 Z " fill="#CECA1D" transform="translate(227,49)"/>
<path d="M0 0 C-8.02058824 4.15882353 -8.02058824 4.15882353 -11.3125 3.625 C-11.869375 3.41875 -12.42625 3.2125 -13 3 C-8.72352613 0.14901742 -5.0682068 -0.14480591 0 0 Z " fill="#C1B91C" transform="translate(247,352)"/>
<path d="M0 0 C3.63 0 7.26 0 11 0 C11 0.33 11 0.66 11 1 C3.57142857 3.14285714 3.57142857 3.14285714 0 4 C0 2.68 0 1.36 0 0 Z " fill="#B7B11C" transform="translate(133,52)"/>
<path d="M0 0 C0.99 0.495 0.99 0.495 2 1 C2 1.66 2 2.32 2 3 C3.32 3.66 4.64 4.32 6 5 C6 5.66 6 6.32 6 7 C4.68 7.33 3.36 7.66 2 8 C2 7.01 2 6.02 2 5 C1.34 4.67 0.68 4.34 0 4 C0 2.68 0 1.36 0 0 Z " fill="#C9C31B" transform="translate(309,49)"/>
<path d="M0 0 C0 0.66 0 1.32 0 2 C-3.21451269 3.60725635 -6.43612536 3.05748185 -10 3 C-6.26223701 0.50815801 -4.5227786 0 0 0 Z " fill="#B3AC18" transform="translate(224,316)"/>
<path d="M0 0 C0.99 0.495 0.99 0.495 2 1 C3.11421833 4.64653273 2.94296589 7.33291043 2 11 C-0.32590854 7.36576791 -0.16265833 4.22911669 0 0 Z " fill="#B1A816" transform="translate(324,160)"/>
<path d="M0 0 C2 2 2 2 2 6 C0.68 5.67 -0.64 5.34 -2 5 C-2 3.68 -2 2.36 -2 1 C-1.34 0.67 -0.68 0.34 0 0 Z " fill="#D0C815" transform="translate(255,100)"/>
<path d="M0 0 C3 4 3 4 3.07421875 6.578125 C2.94660156 7.45984375 2.81898438 8.3415625 2.6875 9.25 C2.50767578 10.58804688 2.50767578 10.58804688 2.32421875 11.953125 C2.21722656 12.62859375 2.11023438 13.3040625 2 14 C1.67 14 1.34 14 1 14 C0.67 9.38 0.34 4.76 0 0 Z " fill="#10A9D9" transform="translate(169,90)"/>
<path d="M0 0 C0 0.66 0 1.32 0 2 C-2.97 2 -5.94 2 -9 2 C-9 1.34 -9 0.68 -9 0 C-5.93109813 -1.53445094 -3.29905734 -0.54984289 0 0 Z " fill="#EEE520" transform="translate(299,64)"/>
<path d="M0 0 C0 0.99 0 1.98 0 3 C-3.80504787 4.79682816 -4.70600835 5.07349791 -9 4 C-6.03 2.68 -3.06 1.36 0 0 Z " fill="#B0A819" transform="translate(121,15)"/>
<path d="M0 0 C1.65 0 3.3 0 5 0 C5.33 1.32 5.66 2.64 6 4 C3.03 3.505 3.03 3.505 0 3 C0 2.01 0 1.02 0 0 Z " fill="#BDB210" transform="translate(144,355)"/>
<path d="M0 0 C1.9375 0.5625 1.9375 0.5625 4 2 C4.75 5.625 4.75 5.625 5 9 C1.9083091 6.47043472 1.09068668 3.77545388 0 0 Z " fill="#9E981E" transform="translate(255,214)"/>
<path d="M0 0 C-0.639375 0.28875 -1.27875 0.5775 -1.9375 0.875 C-4.15206079 1.82823451 -4.15206079 1.82823451 -5 4 C-7 3 -7 3 -9 0 C-3.375 -1.125 -3.375 -1.125 0 0 Z " fill="#C3B917" transform="translate(287,333)"/>
<path d="M0 0 C1.32 0 2.64 0 4 0 C4.66 2.97 5.32 5.94 6 9 C2.98101014 7.49050507 2.40039451 4.98344918 1 2 C0.67 1.34 0.34 0.68 0 0 Z " fill="#A29F19" transform="translate(265,233)"/>
<path d="M0 0 C0.66 0 1.32 0 2 0 C2.33 1.98 2.66 3.96 3 6 C2.01 6.495 2.01 6.495 1 7 C1 6.34 1 5.68 1 5 C0.34 5 -0.32 5 -1 5 C-0.67 3.35 -0.34 1.7 0 0 Z " fill="#C6C418" transform="translate(358,125)"/>
<path d="M0 0 C0.33 0.99 0.66 1.98 1 3 C-1.31 3.33 -3.62 3.66 -6 4 C-6 3.34 -6 2.68 -6 2 C-4.02 1.34 -2.04 0.68 0 0 Z " fill="#B3AC17" transform="translate(143,8)"/>
<path d="" fill="#000000" transform="translate(0,0)"/>
<path d="" fill="#000000" transform="translate(0,0)"/>
<path d="" fill="#000000" transform="translate(0,0)"/>
<path d="" fill="#000000" transform="translate(0,0)"/>
<path d="" fill="#000000" transform="translate(0,0)"/>
<path d="" fill="#000000" transform="translate(0,0)"/>
<path d="" fill="#000000" transform="translate(0,0)"/>
<path d="" fill="#000000" transform="translate(0,0)"/>
<path d="" fill="#000000" transform="translate(0,0)"/>
<path d="" fill="#000000" transform="translate(0,0)"/>
<path d="" fill="#000000" transform="translate(0,0)"/>
<path d="" fill="#000000" transform="translate(0,0)"/>
<path d="" fill="#000000" transform="translate(0,0)"/>
<path d="" fill="#000000" transform="translate(0,0)"/>
<path d="" fill="#000000" transform="translate(0,0)"/>
<path d="" fill="#000000" transform="translate(0,0)"/>
<path d="" fill="#000000" transform="translate(0,0)"/>
<path d="" fill="#000000" transform="translate(0,0)"/>
<path d="" fill="#000000" transform="translate(0,0)"/>
<path d="" fill="#000000" transform="translate(0,0)"/>
<path d="" fill="#000000" transform="translate(0,0)"/>
<path d="" fill="#000000" transform="translate(0,0)"/>
<path d="" fill="#000000" transform="translate(0,0)"/>
<path d="" fill="#000000" transform="translate(0,0)"/>
<path d="" fill="#000000" transform="translate(0,0)"/>
<path d="" fill="#000000" transform="translate(0,0)"/>
</svg>
